<svg id="Layer_1" enable-background="new 0 0 64 64" height="84" viewBox="0 0 64 64" width="84" xmlns="http://www.w3.org/2000/svg"><circle cx="32" cy="10" fill="#dcdcdc" r="5.5"/><path d="m32 6.5c2.696 0 4.934 1.941 5.405 4.5.06-.325.095-.658.095-1 0-3.038-2.462-5.5-5.5-5.5s-5.5 2.462-5.5 5.5c0 .342.035.675.095 1 .471-2.559 2.709-4.5 5.405-4.5z" fill="#f0f0e6"/><path d="m32 16c-3.309 0-6-2.691-6-6s2.691-6 6-6 6 2.691 6 6-2.691 6-6 6zm0-11c-2.757 0-5 2.243-5 5s2.243 5 5 5 5-2.243 5-5-2.243-5-5-5z" fill="#785ae6"/><path d="m32 5c-.276 0-.5-.224-.5-.5v-3c0-.276.224-.5.5-.5s.5.224.5.5v3c0 .276-.224.5-.5.5z" fill="#785ae6"/><path d="m54.5 5.5h7v5h-7z" fill="#96aaf0" transform="matrix(-.594 .805 -.805 -.594 98.872 -33.922)"/><path d="m58.066 5.699 3.068 2.264.956-1.295-4.024-2.969-4.156 5.633.956.705z" fill="#a2baff"/><path d="m57.934 12.801c-.104 0-.207-.032-.297-.098l-4.023-2.969c-.223-.164-.27-.477-.105-.699l4.156-5.633c.164-.222.478-.268.699-.105l4.023 2.969c.223.164.27.477.105.699l-4.156 5.633c-.098.132-.249.203-.402.203zm-3.325-3.574 3.219 2.375 3.562-4.828-3.219-2.375z" fill="#785ae6"/><path d="m56.5 6c-.276 0-.5-.224-.5-.5v-4c0-.276.224-.5.5-.5s.5.224.5.5v4c0 .276-.224.5-.5.5z" fill="#785ae6"/><path d="m53.91 9.332 4.024 2.969-12.434 50.199h-44z" fill="#ffe885" opacity=".5"/><path d="m3.471 60.5-1.971 2h44l.495-2z" fill="#dcc864" opacity=".5"/><path d="m45.5 63h-44c-.202 0-.383-.121-.461-.307s-.036-.4.105-.544l52.41-53.168c.176-.177.453-.199.653-.051l4.023 2.969c.163.12.237.326.188.522l-12.433 50.199c-.055.223-.256.38-.485.38zm-42.805-1h42.414l12.26-49.495-3.406-2.513z" fill="#785ae6"/><path d="m2.528 5.488h7v5h-7z" fill="#96aaf0" transform="matrix(.594 .805 -.805 .594 8.877 -1.605)"/><path d="m5.962 5.687 3.2 4.338.956-.705-4.156-5.633-4.024 2.969.956 1.295z" fill="#a2baff"/><path d="m6.094 12.789c-.025 0-.05-.002-.075-.005-.131-.02-.249-.091-.328-.198l-4.155-5.633c-.164-.223-.117-.536.106-.7l4.023-2.969c.106-.079.242-.109.372-.092.131.02.249.091.328.198l4.156 5.633c.164.222.117.535-.105.699l-4.023 2.969c-.088.064-.193.098-.299.098zm-3.456-6.028 3.562 4.828 3.219-2.375-3.563-4.828z" fill="#785ae6"/><path d="m7.528 5.988c-.276 0-.5-.224-.5-.5v-4c0-.276.224-.5.5-.5s.5.224.5.5v4c0 .276-.224.5-.5.5z" fill="#785ae6"/><path d="m10.118 9.32-4.024 2.968 12.434 50.2h44z" fill="#aad2ff" opacity=".5"/><path d="m18.033 60.488.495 2h44l-1.971-2z" fill="#96aaf0" opacity=".5"/><path d="m62.528 62.988h-44c-.23 0-.43-.157-.485-.38l-12.434-50.199c-.049-.196.026-.402.188-.522l4.023-2.969c.2-.146.478-.126.653.051l52.411 53.168c.142.144.183.358.104.544-.076.186-.259.307-.46.307zm-43.609-1h42.414l-51.267-52.009-3.406 2.514z" fill="#785ae6"/><path d="m19 6 1.414 2.586 2.586 1.414-2.586 1.414-1.414 2.586-1.414-2.586-2.586-1.414 2.586-1.414z" fill="#ffe885"/><path d="m17.586 9.586 1.414-1.586 1.414 1.586 2.586.414-2.586-1.414-1.414-2.586-1.414 2.586-2.586 1.414z" fill="#fffa96"/><path d="m19 14.5c-.183 0-.351-.1-.438-.26l-1.344-2.457-2.457-1.344c-.161-.088-.261-.256-.261-.439s.1-.351.26-.438l2.457-1.344 1.344-2.457c.175-.321.702-.321.877 0l1.344 2.457 2.457 1.344c.161.087.261.255.261.438s-.1.351-.26.438l-2.457 1.344-1.344 2.457c-.088.161-.256.261-.439.261zm-2.958-4.5 1.784.976c.084.046.153.115.199.199l.975 1.783.976-1.784c.046-.084.115-.153.199-.199l1.783-.975-1.784-.976c-.084-.046-.153-.115-.199-.199l-.975-1.783-.976 1.784c-.046.084-.115.153-.199.199z" fill="#785ae6"/><path d="m46 11 1.414 2.586 2.586 1.414-2.586 1.414-1.414 2.586-1.414-2.586-2.586-1.414 2.586-1.414z" fill="#ffe885"/><path d="m44.586 14.586 1.414-1.586 1.414 1.586 2.586.414-2.586-1.414-1.414-2.586-1.414 2.586-2.586 1.414z" fill="#fffa96"/><path d="m46 19.5c-.183 0-.351-.1-.438-.26l-1.344-2.457-2.458-1.344c-.16-.088-.26-.256-.26-.439s.1-.351.26-.438l2.458-1.344 1.344-2.457c.176-.321.701-.321.877 0l1.344 2.457 2.458 1.344c.159.087.259.255.259.438s-.1.351-.26.438l-2.458 1.344-1.344 2.457c-.087.161-.255.261-.438.261zm-2.958-4.5 1.784.976c.084.046.152.115.198.199l.976 1.783.976-1.784c.046-.084.114-.153.198-.199l1.784-.975-1.784-.976c-.084-.046-.152-.115-.198-.199l-.976-1.783-.976 1.784c-.046.084-.114.153-.198.199z" fill="#785ae6"/><path d="m1.5 58.5h61v4h-61z" fill="#e678a0"/><path d="m1.5 60.5h61v2h-61z" fill="#d2648c"/><path d="m62.5 63h-61c-.276 0-.5-.224-.5-.5v-4c0-.276.224-.5.5-.5h61c.276 0 .5.224.5.5v4c0 .276-.224.5-.5.5zm-60.5-1h60v-3h-60z" fill="#785ae6"/><path d="m21.5 58.5h21v4h-21z" fill="#aad2ff"/><path d="m21.5 60.5h21v2h-21z" fill="#96bef0"/><path d="m42.5 63h-21c-.276 0-.5-.224-.5-.5v-4c0-.276.224-.5.5-.5h21c.276 0 .5.224.5.5v4c0 .276-.224.5-.5.5zm-20.5-1h20v-3h-20z" fill="#785ae6"/><path d="m42.5 58.5h-21l2.29-13h16.42z" fill="#aad2ff"/><path d="m40.562 47.5-.352-2h-16.42l-.352 2z" fill="#bee6ff"/><path d="m42.5 59h-21c-.148 0-.288-.065-.383-.179-.095-.113-.135-.263-.109-.408l2.29-13c.042-.239.249-.413.492-.413h16.42c.243 0 .45.174.492.413l2.29 13c.025.146-.015.295-.109.408s-.236.179-.383.179zm-20.404-1h19.809l-2.115-12h-15.581z" fill="#785ae6"/><path d="m8.22 45.5h15.57l-2.29 13h-20z" fill="#e678a0"/><path d="m23.438 47.5.352-2h-15.57l-1.034 2z" fill="#fa8cb4"/><path d="m62.5 58.5h-20l-2.29-13h15.57z" fill="#e678a0"/><path d="m56.814 47.5-1.034-2h-15.57l.352 2z" fill="#fa8cb4"/><path d="m21.5 59h-20c-.174 0-.336-.091-.427-.24-.09-.149-.097-.334-.017-.489l6.72-13c.085-.167.257-.271.444-.271h15.57c.148 0 .288.065.383.179.095.113.135.263.109.408l-2.29 13c-.042.239-.249.413-.492.413zm-19.179-1h18.759l2.114-12h-14.67z" fill="#785ae6"/><path d="m62.5 59h-20c-.243 0-.45-.174-.492-.413l-2.29-13c-.025-.146.015-.295.109-.408s.235-.179.383-.179h15.57c.187 0 .358.104.444.271l6.72 13c.08.155.073.34-.018.489-.09.149-.251.24-.426.24zm-19.58-1h18.759l-6.203-12h-14.67z" fill="#785ae6"/><path d="m40.21 45.5h-16.42l1.77-10h12.88z" fill="#e678a0"/><path d="m38.794 37.5-.354-2h-12.88l-.354 2z" fill="#fa8cb4"/><path d="m13.4 35.5h12.16l-1.77 10h-15.57z" fill="#aad2ff"/><path d="m25.206 37.5.354-2h-12.16l-1.036 2z" fill="#bee6ff"/><path d="m55.78 45.5h-15.57l-1.77-10h12.16z" fill="#aad2ff"/><path d="m51.636 37.5-1.036-2h-12.16l.354 2z" fill="#bee6ff"/><path d="m38.44 35.5h-12.88l1.06-6h10.76z" fill="#aad2ff"/><path d="m37.733 31.5-.353-2h-10.76l-.353 2z" fill="#bee6ff"/><path d="m23.79 46h-15.57c-.174 0-.336-.091-.427-.24s-.097-.335-.017-.49l5.18-10c.086-.166.257-.27.444-.27h12.16c.276 0 .5.224.5.5s-.224.5-.5.5h-11.856l-4.662 9h14.748c.276 0 .5.224.5.5s-.224.5-.5.5z" fill="#785ae6"/><path d="m55.78 46h-15.57c-.276 0-.5-.224-.5-.5s.224-.5.5-.5h14.748l-4.662-9h-11.856c-.276 0-.5-.224-.5-.5s.224-.5.5-.5h12.16c.187 0 .358.104.444.27l5.181 10c.08.155.073.341-.018.49-.09.149-.252.24-.427.24z" fill="#785ae6"/><path d="m38.44 36h-12.88c-.148 0-.288-.065-.383-.179-.095-.113-.135-.263-.109-.408l1.06-6c.042-.239.249-.413.492-.413h10.76c.242 0 .45.174.492.413l1.061 6c.026.146-.014.295-.109.408-.095.114-.236.179-.384.179zm-12.284-1h11.688l-.884-5h-9.92z" fill="#785ae6"/><path d="m16.5 29.5h10.12l-1.06 6h-12.16z" fill="#e678a0"/><path d="m26.267 31.5.353-2h-10.12l-1.033 2z" fill="#fa8cb4"/><path d="m50.6 35.5h-12.16l-1.06-6h10.12z" fill="#e678a0"/><path d="m48.533 31.5-1.033-2h-10.12l.353 2z" fill="#fa8cb4"/><g fill="#785ae6"><path d="m25.56 36h-12.16c-.174 0-.336-.091-.427-.24-.09-.149-.097-.335-.017-.49l3.1-6c.086-.166.257-.27.444-.27h10.12c.148 0 .288.065.383.179.095.113.135.263.109.408l-1.06 6c-.042.239-.249.413-.492.413zm-11.339-1h10.919l.883-5h-9.219z"/><path d="m50.6 36h-12.16c-.242 0-.45-.174-.492-.413l-1.061-6c-.026-.146.014-.295.109-.408.096-.114.236-.179.384-.179h10.12c.187 0 .358.104.444.271l3.1 6c.08.155.073.34-.018.49-.09.148-.252.239-.426.239zm-11.741-1h10.919l-2.583-5h-9.22z"/><path d="m24.438 42.34c-.029 0-.058-.002-.087-.008-.272-.048-.454-.308-.405-.58l.338-1.909c.048-.271.306-.457.579-.405.272.048.454.308.405.58l-.338 1.909c-.043.243-.254.413-.492.413z"/><path d="m40.21 46h-16.42c-.276 0-.5-.224-.5-.5s.224-.5.5-.5h15.823l-.297-1.679c-.048-.272.133-.532.405-.58.268-.047.531.132.579.405l.401 2.267c.026.146-.014.295-.109.409-.094.113-.235.178-.382.178z"/><path d="m39.406 41.467c-.237 0-.448-.17-.491-.413l-.487-2.757c-.048-.272.133-.531.405-.579.268-.049.531.133.579.405l.487 2.757c.048.272-.133.531-.405.579-.029.005-.058.008-.088.008z"/><path d="m25.207 38c-.029 0-.058-.002-.087-.008-.272-.048-.454-.308-.405-.579l.354-2c.041-.239.248-.413.491-.413h12.88c.242 0 .45.174.492.413l.177 1c.048.272-.133.531-.405.579-.266.05-.531-.133-.579-.405l-.104-.587h-12.042l-.281 1.587c-.043.243-.253.413-.491.413z"/></g></svg>
