<svg id="Capa_1" enable-background="new 0 0 512 512" height="84" viewBox="0 0 512 512" width="84" xmlns="http://www.w3.org/2000/svg"><path d="m256 .004c-.025 0-.048-.004-.073-.004-106.978.527-194.019 88.993-194.019 196 0 127.471 164.839 292.577 183.633 310.873 2.915 2.827 6.68 4.248 10.459 4.248s7.544-1.421 10.459-4.248c18.794-18.296 183.633-183.402 183.633-310.873 0-106.983-87.005-195.429-194.092-195.996zm0 330.996c-74.559 0-135-60.441-135-135s60.441-136 135-136 135 61.441 135 136-60.441 135-135 135z" fill="#ff7c48"/><path d="m256 .004v59.996c74.559 0 135 61.441 135 136s-60.441 135-135 135v180.121c3.779 0 7.544-1.421 10.459-4.248 18.794-18.296 183.633-183.402 183.633-310.873 0-106.983-87.005-195.429-194.092-195.996z" fill="#ff415b"/><path d="m346 482h-90-90c-8.291 0-15 6.709-15 15s6.709 15 15 15h90 90c8.291 0 15-6.709 15-15s-6.709-15-15-15z" fill="#8cf2f2"/><path d="m361 497c0-8.291-6.709-15-15-15h-90v30h90c8.291 0 15-6.709 15-15z" fill="#57d9d4"/><path d="m256 211c-36.224 0-66.443 25.681-73.458 59.828 18.957 18.611 44.862 30.172 73.458 30.172s54.501-11.561 73.458-30.172c-7.015-34.147-37.234-59.828-73.458-59.828z" fill="#57d9d4"/><path d="m256 211v90c28.596 0 54.501-11.561 73.458-30.172-7.015-34.147-37.234-59.828-73.458-59.828z" fill="#26bfbf"/><path d="m256 120c-24.814 0-45 21.186-45 46s20.186 45 45 45 45-20.186 45-45-20.186-46-45-46z" fill="#ffcebf"/><path d="m301 166c0-24.814-20.186-46-45-46v91c24.814 0 45-20.186 45-45z" fill="#ffbfab"/></svg>
